<mxfile host="app.diagrams.net" modified="2022-04-14T14:16:54.958Z" agent="5.0 (Macintosh)" etag="wdgrcJWt4LVvK21lGL4K" version="17.4.3" type="github">
  <diagram id="de1gd--JB8ZijS5LSh59" name="Page-1">
    <mxGraphModel dx="686" dy="526" grid="1" gridSize="10" guides="1" tooltips="1" connect="1" arrows="1" fold="1" page="1" pageScale="1" pageWidth="850" pageHeight="1100" math="0" shadow="0">
      <root>
        <mxCell id="0" />
        <mxCell id="1" parent="0" />
        <mxCell id="QgLFE1ABTUtCQ2_hICMf-3" style="edgeStyle=orthogonalEdgeStyle;rounded=0;orthogonalLoop=1;jettySize=auto;html=1;exitX=0.5;exitY=1;exitDx=0;exitDy=0;exitPerimeter=0;entryX=0.5;entryY=0;entryDx=0;entryDy=0;entryPerimeter=0;fontSize=18;" edge="1" parent="1" source="QgLFE1ABTUtCQ2_hICMf-1" target="QgLFE1ABTUtCQ2_hICMf-2">
          <mxGeometry relative="1" as="geometry" />
        </mxCell>
        <mxCell id="QgLFE1ABTUtCQ2_hICMf-1" value="Start" style="strokeWidth=2;html=1;shape=mxgraph.flowchart.start_2;whiteSpace=wrap;fontSize=18;" vertex="1" parent="1">
          <mxGeometry x="320" y="50" width="60" height="60" as="geometry" />
        </mxCell>
        <mxCell id="QgLFE1ABTUtCQ2_hICMf-5" style="edgeStyle=orthogonalEdgeStyle;rounded=0;orthogonalLoop=1;jettySize=auto;html=1;exitX=1;exitY=0.5;exitDx=0;exitDy=0;exitPerimeter=0;entryX=0;entryY=0.5;entryDx=0;entryDy=0;entryPerimeter=0;fontSize=18;" edge="1" parent="1" source="QgLFE1ABTUtCQ2_hICMf-2">
          <mxGeometry relative="1" as="geometry">
            <mxPoint x="413" y="196" as="sourcePoint" />
            <mxPoint x="498" y="196" as="targetPoint" />
          </mxGeometry>
        </mxCell>
        <mxCell id="QgLFE1ABTUtCQ2_hICMf-10" style="edgeStyle=orthogonalEdgeStyle;rounded=0;orthogonalLoop=1;jettySize=auto;html=1;exitX=0.5;exitY=1;exitDx=0;exitDy=0;exitPerimeter=0;entryX=0.5;entryY=0;entryDx=0;entryDy=0;entryPerimeter=0;fontSize=18;" edge="1" parent="1" source="QgLFE1ABTUtCQ2_hICMf-2" target="QgLFE1ABTUtCQ2_hICMf-9">
          <mxGeometry relative="1" as="geometry" />
        </mxCell>
        <mxCell id="QgLFE1ABTUtCQ2_hICMf-2" value="Parse Ethernet" style="strokeWidth=2;html=1;shape=mxgraph.flowchart.start_1;whiteSpace=wrap;fontSize=18;" vertex="1" parent="1">
          <mxGeometry x="292.5" y="156" width="115" height="80" as="geometry" />
        </mxCell>
        <mxCell id="QgLFE1ABTUtCQ2_hICMf-4" value="Accept" style="strokeWidth=2;html=1;shape=mxgraph.flowchart.terminator;whiteSpace=wrap;fontSize=18;" vertex="1" parent="1">
          <mxGeometry x="500" y="171" width="80" height="50" as="geometry" />
        </mxCell>
        <mxCell id="QgLFE1ABTUtCQ2_hICMf-6" value="&lt;font style=&quot;font-size: 14px&quot;&gt;default&lt;/font&gt;" style="text;html=1;align=center;verticalAlign=middle;resizable=0;points=[];autosize=1;strokeColor=none;fillColor=none;fontSize=18;" vertex="1" parent="1">
          <mxGeometry x="565" y="414" width="60" height="30" as="geometry" />
        </mxCell>
        <mxCell id="QgLFE1ABTUtCQ2_hICMf-14" style="edgeStyle=orthogonalEdgeStyle;rounded=0;orthogonalLoop=1;jettySize=auto;html=1;exitX=0.145;exitY=0.855;exitDx=0;exitDy=0;exitPerimeter=0;fontSize=14;curved=1;" edge="1" parent="1" source="QgLFE1ABTUtCQ2_hICMf-9" target="QgLFE1ABTUtCQ2_hICMf-12">
          <mxGeometry relative="1" as="geometry" />
        </mxCell>
        <mxCell id="QgLFE1ABTUtCQ2_hICMf-15" style="edgeStyle=orthogonalEdgeStyle;curved=1;rounded=0;orthogonalLoop=1;jettySize=auto;html=1;exitX=0.855;exitY=0.855;exitDx=0;exitDy=0;exitPerimeter=0;fontSize=14;" edge="1" parent="1" source="QgLFE1ABTUtCQ2_hICMf-9" target="QgLFE1ABTUtCQ2_hICMf-13">
          <mxGeometry relative="1" as="geometry" />
        </mxCell>
        <mxCell id="QgLFE1ABTUtCQ2_hICMf-16" style="edgeStyle=orthogonalEdgeStyle;curved=1;rounded=0;orthogonalLoop=1;jettySize=auto;html=1;exitX=0.5;exitY=1;exitDx=0;exitDy=0;exitPerimeter=0;fontSize=14;" edge="1" parent="1" source="QgLFE1ABTUtCQ2_hICMf-9" target="QgLFE1ABTUtCQ2_hICMf-11">
          <mxGeometry relative="1" as="geometry" />
        </mxCell>
        <mxCell id="QgLFE1ABTUtCQ2_hICMf-9" value="Parse &lt;br&gt;IPv4" style="strokeWidth=2;html=1;shape=mxgraph.flowchart.start_1;whiteSpace=wrap;fontSize=18;" vertex="1" parent="1">
          <mxGeometry x="292.5" y="280" width="115" height="80" as="geometry" />
        </mxCell>
        <mxCell id="QgLFE1ABTUtCQ2_hICMf-28" style="edgeStyle=orthogonalEdgeStyle;curved=1;rounded=0;orthogonalLoop=1;jettySize=auto;html=1;exitX=0.5;exitY=1;exitDx=0;exitDy=0;exitPerimeter=0;entryX=0.855;entryY=0.145;entryDx=0;entryDy=0;entryPerimeter=0;fontSize=14;" edge="1" parent="1" source="QgLFE1ABTUtCQ2_hICMf-11" target="QgLFE1ABTUtCQ2_hICMf-26">
          <mxGeometry relative="1" as="geometry" />
        </mxCell>
        <mxCell id="QgLFE1ABTUtCQ2_hICMf-11" value="Parse &lt;br&gt;UDP" style="strokeWidth=2;html=1;shape=mxgraph.flowchart.start_1;whiteSpace=wrap;fontSize=18;" vertex="1" parent="1">
          <mxGeometry x="292.5" y="400" width="115" height="80" as="geometry" />
        </mxCell>
        <mxCell id="QgLFE1ABTUtCQ2_hICMf-27" style="edgeStyle=orthogonalEdgeStyle;curved=1;rounded=0;orthogonalLoop=1;jettySize=auto;html=1;exitX=0.5;exitY=1;exitDx=0;exitDy=0;exitPerimeter=0;entryX=0.145;entryY=0.145;entryDx=0;entryDy=0;entryPerimeter=0;fontSize=14;" edge="1" parent="1" source="QgLFE1ABTUtCQ2_hICMf-12" target="QgLFE1ABTUtCQ2_hICMf-26">
          <mxGeometry relative="1" as="geometry" />
        </mxCell>
        <mxCell id="QgLFE1ABTUtCQ2_hICMf-12" value="Parse &lt;br&gt;TCP" style="strokeWidth=2;html=1;shape=mxgraph.flowchart.start_1;whiteSpace=wrap;fontSize=18;" vertex="1" parent="1">
          <mxGeometry x="140" y="400" width="115" height="80" as="geometry" />
        </mxCell>
        <mxCell id="QgLFE1ABTUtCQ2_hICMf-22" style="edgeStyle=orthogonalEdgeStyle;curved=1;rounded=0;orthogonalLoop=1;jettySize=auto;html=1;exitX=1;exitY=0.5;exitDx=0;exitDy=0;exitPerimeter=0;entryX=0;entryY=0.5;entryDx=0;entryDy=0;entryPerimeter=0;fontSize=14;" edge="1" parent="1" source="QgLFE1ABTUtCQ2_hICMf-13" target="QgLFE1ABTUtCQ2_hICMf-21">
          <mxGeometry relative="1" as="geometry" />
        </mxCell>
        <mxCell id="QgLFE1ABTUtCQ2_hICMf-30" style="edgeStyle=orthogonalEdgeStyle;curved=1;rounded=0;orthogonalLoop=1;jettySize=auto;html=1;exitX=0.5;exitY=1;exitDx=0;exitDy=0;exitPerimeter=0;fontSize=14;" edge="1" parent="1" source="QgLFE1ABTUtCQ2_hICMf-13" target="QgLFE1ABTUtCQ2_hICMf-29">
          <mxGeometry relative="1" as="geometry" />
        </mxCell>
        <mxCell id="QgLFE1ABTUtCQ2_hICMf-13" value="Parse &lt;br&gt;ICMP" style="strokeWidth=2;html=1;shape=mxgraph.flowchart.start_1;whiteSpace=wrap;fontSize=18;" vertex="1" parent="1">
          <mxGeometry x="450" y="400" width="115" height="80" as="geometry" />
        </mxCell>
        <mxCell id="QgLFE1ABTUtCQ2_hICMf-17" value="&lt;font style=&quot;font-size: 14px&quot;&gt;Protocol = 0x01&lt;/font&gt;" style="text;html=1;align=center;verticalAlign=middle;resizable=0;points=[];autosize=1;strokeColor=none;fillColor=none;fontSize=18;" vertex="1" parent="1">
          <mxGeometry x="503" y="360" width="110" height="30" as="geometry" />
        </mxCell>
        <mxCell id="QgLFE1ABTUtCQ2_hICMf-19" value="&lt;font style=&quot;font-size: 14px&quot;&gt;Protocol = 0x11&lt;/font&gt;" style="text;html=1;align=center;verticalAlign=middle;resizable=0;points=[];autosize=1;strokeColor=none;fillColor=none;fontSize=18;" vertex="1" parent="1">
          <mxGeometry x="350" y="360" width="110" height="30" as="geometry" />
        </mxCell>
        <mxCell id="QgLFE1ABTUtCQ2_hICMf-20" value="&lt;font style=&quot;font-size: 14px&quot;&gt;Protocol = 0x06&lt;/font&gt;" style="text;html=1;align=center;verticalAlign=middle;resizable=0;points=[];autosize=1;strokeColor=none;fillColor=none;fontSize=18;" vertex="1" parent="1">
          <mxGeometry x="214" y="360" width="110" height="30" as="geometry" />
        </mxCell>
        <mxCell id="QgLFE1ABTUtCQ2_hICMf-21" value="Accept" style="strokeWidth=2;html=1;shape=mxgraph.flowchart.terminator;whiteSpace=wrap;fontSize=18;" vertex="1" parent="1">
          <mxGeometry x="640" y="415" width="80" height="50" as="geometry" />
        </mxCell>
        <mxCell id="QgLFE1ABTUtCQ2_hICMf-24" value="&lt;font style=&quot;font-size: 14px&quot;&gt;default&lt;/font&gt;" style="text;html=1;align=center;verticalAlign=middle;resizable=0;points=[];autosize=1;strokeColor=none;fillColor=none;fontSize=18;" vertex="1" parent="1">
          <mxGeometry x="420" y="170" width="60" height="30" as="geometry" />
        </mxCell>
        <mxCell id="QgLFE1ABTUtCQ2_hICMf-25" value="&lt;font style=&quot;font-size: 14px&quot;&gt;Ethertype=0x800&lt;/font&gt;" style="text;html=1;align=center;verticalAlign=middle;resizable=0;points=[];autosize=1;strokeColor=none;fillColor=none;fontSize=18;" vertex="1" parent="1">
          <mxGeometry x="349" y="120" width="120" height="30" as="geometry" />
        </mxCell>
        <mxCell id="QgLFE1ABTUtCQ2_hICMf-33" style="edgeStyle=orthogonalEdgeStyle;curved=1;rounded=0;orthogonalLoop=1;jettySize=auto;html=1;exitX=0.5;exitY=1;exitDx=0;exitDy=0;exitPerimeter=0;fontSize=16;" edge="1" parent="1" source="QgLFE1ABTUtCQ2_hICMf-26" target="QgLFE1ABTUtCQ2_hICMf-32">
          <mxGeometry relative="1" as="geometry" />
        </mxCell>
        <mxCell id="QgLFE1ABTUtCQ2_hICMf-38" style="edgeStyle=orthogonalEdgeStyle;curved=1;rounded=0;orthogonalLoop=1;jettySize=auto;html=1;exitX=0;exitY=0.5;exitDx=0;exitDy=0;exitPerimeter=0;entryX=0;entryY=0.5;entryDx=0;entryDy=0;entryPerimeter=0;fontSize=16;" edge="1" parent="1" source="QgLFE1ABTUtCQ2_hICMf-26" target="QgLFE1ABTUtCQ2_hICMf-35">
          <mxGeometry relative="1" as="geometry">
            <Array as="points">
              <mxPoint x="170" y="570" />
              <mxPoint x="170" y="815" />
            </Array>
          </mxGeometry>
        </mxCell>
        <mxCell id="QgLFE1ABTUtCQ2_hICMf-26" value="Parse &lt;br&gt;SOME/IP" style="strokeWidth=2;html=1;shape=mxgraph.flowchart.start_1;whiteSpace=wrap;fontSize=18;" vertex="1" parent="1">
          <mxGeometry x="214" y="530" width="115" height="80" as="geometry" />
        </mxCell>
        <mxCell id="QgLFE1ABTUtCQ2_hICMf-37" style="edgeStyle=orthogonalEdgeStyle;curved=1;rounded=0;orthogonalLoop=1;jettySize=auto;html=1;exitX=0.5;exitY=1;exitDx=0;exitDy=0;exitPerimeter=0;entryX=1;entryY=0.5;entryDx=0;entryDy=0;entryPerimeter=0;fontSize=16;" edge="1" parent="1" source="QgLFE1ABTUtCQ2_hICMf-29" target="QgLFE1ABTUtCQ2_hICMf-35">
          <mxGeometry relative="1" as="geometry" />
        </mxCell>
        <mxCell id="QgLFE1ABTUtCQ2_hICMf-29" value="Parse ICMP payload" style="strokeWidth=2;html=1;shape=mxgraph.flowchart.start_1;whiteSpace=wrap;fontSize=18;" vertex="1" parent="1">
          <mxGeometry x="450" y="530" width="115" height="80" as="geometry" />
        </mxCell>
        <mxCell id="QgLFE1ABTUtCQ2_hICMf-31" value="&lt;font style=&quot;font-size: 14px&quot;&gt;ICMP_type&lt;font style=&quot;font-size: 14px&quot;&gt; = 0x3&lt;/font&gt;&lt;/font&gt;" style="text;html=1;align=center;verticalAlign=middle;resizable=0;points=[];autosize=1;strokeColor=none;fillColor=none;fontSize=18;" vertex="1" parent="1">
          <mxGeometry x="506" y="490" width="120" height="30" as="geometry" />
        </mxCell>
        <mxCell id="QgLFE1ABTUtCQ2_hICMf-36" style="edgeStyle=orthogonalEdgeStyle;curved=1;rounded=0;orthogonalLoop=1;jettySize=auto;html=1;exitX=0.5;exitY=1;exitDx=0;exitDy=0;exitPerimeter=0;fontSize=16;" edge="1" parent="1" source="QgLFE1ABTUtCQ2_hICMf-32" target="QgLFE1ABTUtCQ2_hICMf-35">
          <mxGeometry relative="1" as="geometry" />
        </mxCell>
        <mxCell id="QgLFE1ABTUtCQ2_hICMf-32" value="Parse &lt;br&gt;&lt;font style=&quot;font-size: 16px&quot;&gt;SOME/IP-SD&lt;/font&gt;" style="strokeWidth=2;html=1;shape=mxgraph.flowchart.start_1;whiteSpace=wrap;fontSize=18;" vertex="1" parent="1">
          <mxGeometry x="214" y="660" width="115" height="80" as="geometry" />
        </mxCell>
        <mxCell id="QgLFE1ABTUtCQ2_hICMf-34" value="&lt;div&gt;&lt;font style=&quot;font-size: 14px&quot;&gt;Service_ID&lt;font style=&quot;font-size: 14px&quot;&gt; = 0xFFFF&lt;/font&gt;&lt;/font&gt;&lt;/div&gt;&lt;div align=&quot;left&quot;&gt;&lt;font style=&quot;font-size: 14px&quot;&gt;&lt;font style=&quot;font-size: 14px&quot;&gt;Message_ID = 0x8100&lt;br&gt;&lt;/font&gt;&lt;/font&gt;&lt;/div&gt;" style="text;html=1;align=center;verticalAlign=middle;resizable=0;points=[];autosize=1;strokeColor=none;fillColor=none;fontSize=18;" vertex="1" parent="1">
          <mxGeometry x="269" y="610" width="160" height="50" as="geometry" />
        </mxCell>
        <mxCell id="QgLFE1ABTUtCQ2_hICMf-35" value="Accept" style="strokeWidth=2;html=1;shape=mxgraph.flowchart.terminator;whiteSpace=wrap;fontSize=18;" vertex="1" parent="1">
          <mxGeometry x="231.5" y="790" width="80" height="50" as="geometry" />
        </mxCell>
      </root>
    </mxGraphModel>
  </diagram>
</mxfile>
